<svg id="visual" viewBox="0 0 960 540" width="960" height="540" xmlns="http://www.w3.org/2000/svg" xmlns:xlink="http://www.w3.org/1999/xlink" version="1.1"><rect x="0" y="0" width="960" height="540" fill="#001122"></rect><defs><linearGradient id="grad1_0" x1="43.8%" y1="0%" x2="100%" y2="100%"><stop offset="14.444444444444446%" stop-color="#001122" stop-opacity="1"></stop><stop offset="85.55555555555554%" stop-color="#001122" stop-opacity="1"></stop></linearGradient></defs><defs><linearGradient id="grad2_0" x1="0%" y1="0%" x2="56.3%" y2="100%"><stop offset="14.444444444444446%" stop-color="#001122" stop-opacity="1"></stop><stop offset="85.55555555555554%" stop-color="#001122" stop-opacity="1"></stop></linearGradient></defs><g transform="translate(960, 0)"><path d="M0 486C-21.7 383.2 -43.4 280.5 -81.9 252C-120.4 223.6 -175.8 269.4 -187.5 258.1C-199.2 246.8 -167.3 178.3 -218.4 158.7C-269.6 139.1 -403.8 168.5 -462.2 150.2C-520.7 131.9 -503.3 65.9 -486 0L0 0Z" fill="#af33f2"></path></g><g transform="translate(0, 540)"><path d="M0 -486C38.1 -454.6 76.2 -423.2 136.6 -420.4C197 -417.6 279.6 -443.4 285.7 -393.2C291.7 -342.9 221.2 -216.6 226.5 -164.6C231.9 -112.6 313.1 -134.9 369 -119.9C424.9 -104.9 455.5 -52.4 486 0L0 0Z" fill="#af33f2"></path></g></svg>