<svg width="148" height="79" viewBox="0 0 148 79" fill="none" xmlns="http://www.w3.org/2000/svg">
<mask id="path-1-outside-1_3_5" maskUnits="userSpaceOnUse" x="-1" y="15" width="128" height="49" fill="black">
<rect fill="white" x="-1" y="15" width="128" height="49"/>
<path d="M13.8667 61.7C12.1556 61.7 10.5556 61.5444 9.06667 61.2333C7.6 60.9444 6.36667 60.5556 5.36667 60.0667C4.36667 59.5778 3.54444 59.1111 2.9 58.6667C2.27778 58.2222 1.75556 57.7778 1.33333 57.3333L2.16667 49.2333C3.07778 50.4556 4.3 51.5222 5.83333 52.4333C7.36667 53.3222 9.02222 53.7667 10.8 53.7667C12.5778 53.7667 13.8556 53.5778 14.6333 53.2C15.4333 52.8222 15.8333 52.1333 15.8333 51.1333C15.8333 50.0667 15.3778 49.1556 14.4667 48.4C13.5778 47.6444 12.0333 46.7333 9.83333 45.6667C9.03333 45.2667 8.35556 44.9111 7.8 44.6C7.24444 44.2667 6.5 43.7333 5.56667 43C4.65556 42.2444 3.91111 41.4667 3.33333 40.6667C2.75556 39.8444 2.24444 38.8 1.8 37.5333C1.35556 36.2444 1.13333 34.8667 1.13333 33.4C1.13333 25.4667 5.61111 21.5 14.5667 21.5C15.9889 21.5 17.3222 21.6556 18.5667 21.9667C19.8333 22.2556 20.8222 22.5778 21.5333 22.9333C22.2444 23.2889 22.8889 23.7111 23.4667 24.2C24.0667 24.6667 24.4444 25 24.6 25.2C24.7556 25.3778 24.8667 25.5222 24.9333 25.6333L23.2667 32.0667C22.4 31.0444 21.3111 30.2889 20 29.8C18.7111 29.2889 17.4778 29.0333 16.3 29.0333C13.4556 29.0333 12.0333 29.9222 12.0333 31.7C12.0333 32.1667 12.1222 32.5889 12.3 32.9667C12.4778 33.3444 12.7667 33.6889 13.1667 34C13.5667 34.3111 13.9333 34.5778 14.2667 34.8C14.6222 35.0222 15.1 35.3 15.7 35.6333C16.3222 35.9444 16.7889 36.2 17.1 36.4C20.3444 37.7778 22.7222 39.4111 24.2333 41.3C25.7667 43.1889 26.5333 45.4889 26.5333 48.2C26.5333 52.6 25.4444 55.9556 23.2667 58.2667C21.1111 60.5556 17.9778 61.7 13.8667 61.7ZM44.832 58.0333L44.4987 58.4C44.2765 58.6667 43.932 58.9778 43.4654 59.3333C43.0209 59.6889 42.4987 60.0444 41.8987 60.4C41.3209 60.7556 40.6098 61.0556 39.7654 61.3C38.9209 61.5667 38.0543 61.7 37.1654 61.7C31.1654 61.7 28.1654 58.7333 28.1654 52.8C28.1654 51.6444 28.3765 50.5889 28.7987 49.6333C29.2209 48.6556 29.7654 47.8333 30.432 47.1667C31.0987 46.5 31.8987 45.9111 32.832 45.4C33.7654 44.8667 34.6987 44.4556 35.632 44.1667C36.5876 43.8556 37.5876 43.6 38.632 43.4C39.6765 43.2 40.6098 43.0667 41.432 43C42.2543 42.9333 43.0431 42.9 43.7987 42.9V42.3C43.7987 40.9444 43.432 39.9889 42.6987 39.4333C41.9876 38.8778 40.832 38.6 39.232 38.6C37.8543 38.6 36.4209 38.7667 34.932 39.1C33.4431 39.4111 32.2765 39.7889 31.432 40.2333L29.2987 35.7C30.8098 34.7222 32.7765 33.8667 35.1987 33.1333C37.6209 32.3778 40.0876 32 42.5987 32C44.8209 32 46.6543 32.2222 48.0987 32.6667C49.5431 33.0889 50.7098 33.8222 51.5987 34.8667C52.5098 35.8889 53.1543 37.2 53.532 38.8C53.9098 40.3778 54.0987 42.3889 54.0987 44.8333V58.4L55.032 61H45.8987L44.832 58.0333ZM42.1987 55.8333C42.4876 55.8333 42.7543 55.7778 42.9987 55.6667C43.2654 55.5333 43.4654 55.4111 43.5987 55.3C43.732 55.1667 43.7987 55.1 43.7987 55.1V47.1C42.4431 47.1 41.3654 47.4778 40.5654 48.2333C39.7654 48.9667 39.3654 50.1111 39.3654 51.6667C39.3654 54.4444 40.3098 55.8333 42.1987 55.8333ZM64.8284 61L55.0284 32.6667H66.9951L69.1284 42.9L70.6617 51.7333L72.3617 42.9L74.8284 32.6667H83.8284L75.3284 61H64.8284ZM92.1721 61L82.3721 32.6667H94.3388L96.4721 42.9L98.0055 51.7333L99.7055 42.9L102.172 32.6667H111.172L102.672 61H92.1721ZM113.049 61V39.4333L111.049 38.2V34.6333L118.216 32.6667H123.783V61H113.049ZM117.883 29.6L112.416 24.1V22.9333L117.883 17.4667H119.149L124.849 22.9333V24.1L119.149 29.6H117.883Z"/>
</mask>
<path d="M13.8667 61.7C12.1556 61.7 10.5556 61.5444 9.06667 61.2333C7.6 60.9444 6.36667 60.5556 5.36667 60.0667C4.36667 59.5778 3.54444 59.1111 2.9 58.6667C2.27778 58.2222 1.75556 57.7778 1.33333 57.3333L2.16667 49.2333C3.07778 50.4556 4.3 51.5222 5.83333 52.4333C7.36667 53.3222 9.02222 53.7667 10.8 53.7667C12.5778 53.7667 13.8556 53.5778 14.6333 53.2C15.4333 52.8222 15.8333 52.1333 15.8333 51.1333C15.8333 50.0667 15.3778 49.1556 14.4667 48.4C13.5778 47.6444 12.0333 46.7333 9.83333 45.6667C9.03333 45.2667 8.35556 44.9111 7.8 44.6C7.24444 44.2667 6.5 43.7333 5.56667 43C4.65556 42.2444 3.91111 41.4667 3.33333 40.6667C2.75556 39.8444 2.24444 38.8 1.8 37.5333C1.35556 36.2444 1.13333 34.8667 1.13333 33.4C1.13333 25.4667 5.61111 21.5 14.5667 21.5C15.9889 21.5 17.3222 21.6556 18.5667 21.9667C19.8333 22.2556 20.8222 22.5778 21.5333 22.9333C22.2444 23.2889 22.8889 23.7111 23.4667 24.2C24.0667 24.6667 24.4444 25 24.6 25.2C24.7556 25.3778 24.8667 25.5222 24.9333 25.6333L23.2667 32.0667C22.4 31.0444 21.3111 30.2889 20 29.8C18.7111 29.2889 17.4778 29.0333 16.3 29.0333C13.4556 29.0333 12.0333 29.9222 12.0333 31.7C12.0333 32.1667 12.1222 32.5889 12.3 32.9667C12.4778 33.3444 12.7667 33.6889 13.1667 34C13.5667 34.3111 13.9333 34.5778 14.2667 34.8C14.6222 35.0222 15.1 35.3 15.7 35.6333C16.3222 35.9444 16.7889 36.2 17.1 36.4C20.3444 37.7778 22.7222 39.4111 24.2333 41.3C25.7667 43.1889 26.5333 45.4889 26.5333 48.2C26.5333 52.6 25.4444 55.9556 23.2667 58.2667C21.1111 60.5556 17.9778 61.7 13.8667 61.7ZM44.832 58.0333L44.4987 58.4C44.2765 58.6667 43.932 58.9778 43.4654 59.3333C43.0209 59.6889 42.4987 60.0444 41.8987 60.4C41.3209 60.7556 40.6098 61.0556 39.7654 61.3C38.9209 61.5667 38.0543 61.7 37.1654 61.7C31.1654 61.7 28.1654 58.7333 28.1654 52.8C28.1654 51.6444 28.3765 50.5889 28.7987 49.6333C29.2209 48.6556 29.7654 47.8333 30.432 47.1667C31.0987 46.5 31.8987 45.9111 32.832 45.4C33.7654 44.8667 34.6987 44.4556 35.632 44.1667C36.5876 43.8556 37.5876 43.6 38.632 43.4C39.6765 43.2 40.6098 43.0667 41.432 43C42.2543 42.9333 43.0431 42.9 43.7987 42.9V42.3C43.7987 40.9444 43.432 39.9889 42.6987 39.4333C41.9876 38.8778 40.832 38.6 39.232 38.6C37.8543 38.6 36.4209 38.7667 34.932 39.1C33.4431 39.4111 32.2765 39.7889 31.432 40.2333L29.2987 35.7C30.8098 34.7222 32.7765 33.8667 35.1987 33.1333C37.6209 32.3778 40.0876 32 42.5987 32C44.8209 32 46.6543 32.2222 48.0987 32.6667C49.5431 33.0889 50.7098 33.8222 51.5987 34.8667C52.5098 35.8889 53.1543 37.2 53.532 38.8C53.9098 40.3778 54.0987 42.3889 54.0987 44.8333V58.4L55.032 61H45.8987L44.832 58.0333ZM42.1987 55.8333C42.4876 55.8333 42.7543 55.7778 42.9987 55.6667C43.2654 55.5333 43.4654 55.4111 43.5987 55.3C43.732 55.1667 43.7987 55.1 43.7987 55.1V47.1C42.4431 47.1 41.3654 47.4778 40.5654 48.2333C39.7654 48.9667 39.3654 50.1111 39.3654 51.6667C39.3654 54.4444 40.3098 55.8333 42.1987 55.8333ZM64.8284 61L55.0284 32.6667H66.9951L69.1284 42.9L70.6617 51.7333L72.3617 42.9L74.8284 32.6667H83.8284L75.3284 61H64.8284ZM92.1721 61L82.3721 32.6667H94.3388L96.4721 42.9L98.0055 51.7333L99.7055 42.9L102.172 32.6667H111.172L102.672 61H92.1721ZM113.049 61V39.4333L111.049 38.2V34.6333L118.216 32.6667H123.783V61H113.049ZM117.883 29.6L112.416 24.1V22.9333L117.883 17.4667H119.149L124.849 22.9333V24.1L119.149 29.6H117.883Z" fill="#7208FF"/>
<path d="M9.06667 61.2333L9.37347 59.765L9.36502 59.7633L9.35655 59.7616L9.06667 61.2333ZM5.36667 60.0667L6.02548 58.7191L5.36667 60.0667ZM2.9 58.6667L2.02814 59.8873L2.03821 59.8945L2.0484 59.9015L2.9 58.6667ZM1.33333 57.3333L-0.158791 57.1798L-0.229406 57.8662L0.245834 58.3665L1.33333 57.3333ZM2.16667 49.2333L3.36929 48.3368L1.06851 45.2504L0.674542 49.0798L2.16667 49.2333ZM5.83333 52.4333L5.06709 53.7229L5.07404 53.727L5.08104 53.731L5.83333 52.4333ZM14.6333 53.2L13.9928 51.8436L13.9854 51.8471L13.978 51.8507L14.6333 53.2ZM14.4667 48.4L13.4952 49.5429L13.5021 49.5488L13.5092 49.5546L14.4667 48.4ZM9.83333 45.6667L9.16251 47.0083L9.17069 47.0124L9.17892 47.0164L9.83333 45.6667ZM7.8 44.6L7.02826 45.8862L7.04751 45.8978L7.06709 45.9088L7.8 44.6ZM5.56667 43L4.60916 44.1546L4.62438 44.1673L4.63994 44.1795L5.56667 43ZM3.33333 40.6667L2.10605 41.5291L2.11163 41.537L2.11731 41.5449L3.33333 40.6667ZM1.8 37.5333L0.38192 38.0223L0.3846 38.03L1.8 37.5333ZM18.5667 21.9667L18.2029 23.4219L18.218 23.4257L18.2331 23.4291L18.5667 21.9667ZM23.4667 24.2L22.4978 25.3451L22.5214 25.365L22.5458 25.384L23.4667 24.2ZM24.6 25.2L23.416 26.1209L23.4426 26.1551L23.4711 26.1878L24.6 25.2ZM24.9333 25.6333L26.3854 26.0095L26.5431 25.4008L26.2196 24.8616L24.9333 25.6333ZM23.2667 32.0667L22.1225 33.0367L23.9933 35.2432L24.7187 32.4428L23.2667 32.0667ZM20 29.8L19.4471 31.1944L19.4614 31.2001L19.4759 31.2055L20 29.8ZM12.3 32.9667L13.6572 32.328L13.6572 32.328L12.3 32.9667ZM13.1667 34L14.0876 32.816H14.0876L13.1667 34ZM14.2667 34.8L13.4346 36.0481L13.453 36.0603L13.4717 36.072L14.2667 34.8ZM15.7 35.6333L14.9715 36.9446L15 36.9604L15.0292 36.975L15.7 35.6333ZM17.1 36.4L16.2889 37.6618L16.3962 37.7308L16.5137 37.7807L17.1 36.4ZM24.2333 41.3L23.062 42.2371L23.0687 42.2454L24.2333 41.3ZM23.2667 58.2667L22.175 57.238L22.1747 57.2383L23.2667 58.2667ZM13.8667 60.2C12.2461 60.2 10.7498 60.0526 9.37347 59.765L8.75986 62.7016C10.3613 63.0362 12.065 63.2 13.8667 63.2V60.2ZM9.35655 59.7616C7.97706 59.4899 6.87626 59.135 6.02548 58.7191L4.70785 61.4142C5.85708 61.9761 7.22294 62.399 8.77678 62.7051L9.35655 59.7616ZM6.02548 58.7191C5.06699 58.2505 4.31507 57.8204 3.7516 57.4318L2.0484 59.9015C2.77381 60.4018 3.66635 60.9051 4.70785 61.4142L6.02548 58.7191ZM3.77186 57.4461C3.20915 57.0441 2.76353 56.6609 2.42083 56.3002L0.245834 58.3665C0.747577 58.8946 1.3464 59.4003 2.02814 59.8873L3.77186 57.4461ZM2.82546 57.4868L3.65879 49.3868L0.674542 49.0798L-0.158791 57.1798L2.82546 57.4868ZM0.964048 50.1298C2.01161 51.5351 3.39231 52.7277 5.06709 53.7229L6.59957 51.1438C5.20769 50.3167 4.14394 49.376 3.36929 48.3368L0.964048 50.1298ZM5.08104 53.731C6.84368 54.7529 8.75887 55.2667 10.8 55.2667V52.2667C9.28557 52.2667 7.88965 51.8916 6.58563 51.1356L5.08104 53.731ZM10.8 55.2667C12.6142 55.2667 14.1857 55.085 15.2887 54.5493L13.978 51.8507C13.5255 52.0705 12.5414 52.2667 10.8 52.2667V55.2667ZM15.2738 54.5564C15.9171 54.2526 16.4611 53.7894 16.8305 53.1532C17.1933 52.5285 17.3333 51.8312 17.3333 51.1333H14.3333C14.3333 51.4355 14.2734 51.5826 14.2361 51.6468C14.2055 51.6995 14.1496 51.7696 13.9928 51.8436L15.2738 54.5564ZM17.3333 51.1333C17.3333 49.5677 16.6363 48.2506 15.4242 47.2454L13.5092 49.5546C14.1192 50.0606 14.3333 50.5656 14.3333 51.1333H17.3333ZM15.4381 47.2571C14.3959 46.3711 12.7057 45.3923 10.4877 44.3169L9.17892 47.0164C11.361 48.0743 12.7597 48.9177 13.4952 49.5429L15.4381 47.2571ZM10.5042 44.325C9.71745 43.9317 9.06172 43.5874 8.53291 43.2912L7.06709 45.9088C7.64939 46.2348 8.34921 46.6017 9.16251 47.0083L10.5042 44.325ZM8.57174 43.3138C8.0971 43.029 7.41072 42.5413 6.4934 41.8205L4.63994 44.1795C5.58928 44.9254 6.39179 45.5044 7.02826 45.8862L8.57174 43.3138ZM6.52417 41.8454C5.69185 41.1551 5.03998 40.4678 4.54935 39.7884L2.11731 41.5449C2.78224 42.4656 3.61926 43.3337 4.60916 44.1546L6.52417 41.8454ZM4.56062 39.8042C4.08348 39.1252 3.62849 38.214 3.2154 37.0367L0.3846 38.03C0.860399 39.386 1.42763 40.5636 2.10605 41.5291L4.56062 39.8042ZM3.21806 37.0443C2.83183 35.9243 2.63333 34.7129 2.63333 33.4H-0.366667C-0.366667 35.0204 -0.120722 36.5646 0.38194 38.0223L3.21806 37.0443ZM2.63333 33.4C2.63333 29.7149 3.66496 27.2113 5.48631 25.5978C7.34232 23.9536 10.2784 23 14.5667 23V20C9.89941 20 6.11879 21.0297 3.49702 23.3522C0.840591 25.7054 -0.366667 29.1518 -0.366667 33.4H2.63333ZM14.5667 23C15.8794 23 17.0895 23.1435 18.2029 23.4219L18.9305 20.5115C17.555 20.1676 16.0984 20 14.5667 20V23ZM18.2331 23.4291C19.4466 23.7059 20.3045 23.996 20.8625 24.275L22.2042 21.5917C21.34 21.1596 20.22 20.8052 18.9002 20.5042L18.2331 23.4291ZM20.8625 24.275C21.4722 24.5798 22.0156 24.9371 22.4978 25.3451L24.4356 23.0549C23.7621 22.4851 23.0167 21.998 22.2042 21.5917L20.8625 24.275ZM22.5458 25.384C22.8322 25.6068 23.0504 25.7861 23.2076 25.9248C23.3807 26.0775 23.4274 26.1357 23.416 26.1209L25.784 24.2791C25.4941 23.9063 24.9618 23.4626 24.3876 23.016L22.5458 25.384ZM23.4711 26.1878C23.5338 26.2594 23.5794 26.3151 23.6111 26.3562C23.6444 26.3995 23.6526 26.4143 23.6471 26.4051L26.2196 24.8616C26.084 24.6356 25.9037 24.4121 25.7289 24.2122L23.4711 26.1878ZM23.4813 25.2572L21.8146 31.6905L24.7187 32.4428L26.3854 26.0095L23.4813 25.2572ZM24.4108 31.0966C23.3707 29.8698 22.0647 28.969 20.5241 28.3945L19.4759 31.2055C20.5575 31.6088 21.4293 32.2191 22.1225 33.0367L24.4108 31.0966ZM20.5529 28.4056C19.1187 27.8369 17.6975 27.5333 16.3 27.5333V30.5333C17.2581 30.5333 18.3035 30.7409 19.4471 31.1944L20.5529 28.4056ZM16.3 27.5333C14.7701 27.5333 13.368 27.7636 12.305 28.428C11.1245 29.1658 10.5333 30.3314 10.5333 31.7H13.5333C13.5333 31.2909 13.6533 31.1231 13.895 30.972C14.2542 30.7475 14.9855 30.5333 16.3 30.5333V27.5333ZM10.5333 31.7C10.5333 32.3613 10.6604 33.0054 10.9428 33.6054L13.6572 32.328C13.584 32.1724 13.5333 31.972 13.5333 31.7H10.5333ZM10.9428 33.6054C11.2403 34.2376 11.6987 34.7586 12.2458 35.184L14.0876 32.816C13.8346 32.6192 13.7152 32.4513 13.6572 32.328L10.9428 33.6054ZM12.2458 35.184C12.6674 35.512 13.0642 35.8011 13.4346 36.0481L15.0987 33.5519C14.8025 33.3544 14.4659 33.1102 14.0876 32.816L12.2458 35.184ZM13.4717 36.072C13.8583 36.3137 14.3612 36.6055 14.9715 36.9446L16.4285 34.3221C15.8388 33.9945 15.3861 33.7308 15.0617 33.528L13.4717 36.072ZM15.0292 36.975C15.6373 37.279 16.0466 37.506 16.2889 37.6618L17.9111 35.1382C17.5312 34.894 17.0072 34.6099 16.3708 34.2917L15.0292 36.975ZM16.5137 37.7807C19.6267 39.1026 21.761 40.6107 23.062 42.237L25.4046 40.363C23.6835 38.2115 21.0621 36.4529 17.6863 35.0193L16.5137 37.7807ZM23.0687 42.2454C24.3601 43.8362 25.0333 45.7914 25.0333 48.2H28.0333C28.0333 45.1864 27.1732 42.5416 25.3979 40.3546L23.0687 42.2454ZM25.0333 48.2C25.0333 52.3665 24.0036 55.2973 22.175 57.238L24.3584 59.2954C26.8852 56.6138 28.0333 52.8335 28.0333 48.2H25.0333ZM22.1747 57.2383C20.3827 59.1411 17.6979 60.2 13.8667 60.2V63.2C18.2577 63.2 21.8395 61.97 24.3587 59.295L22.1747 57.2383ZM44.832 58.0333L46.2436 57.5258L45.3997 55.1789L43.7221 57.0243L44.832 58.0333ZM44.4987 58.4L43.3888 57.391L43.3671 57.4149L43.3464 57.4397L44.4987 58.4ZM43.4654 59.3333L42.5563 58.1402L42.5422 58.1509L42.5283 58.162L43.4654 59.3333ZM41.8987 60.4L41.134 59.1096L41.1232 59.1159L41.1126 59.1225L41.8987 60.4ZM39.7654 61.3L39.3483 59.8592L39.3309 59.8642L39.3137 59.8696L39.7654 61.3ZM28.7987 49.6333L30.1708 50.2396L30.1758 50.228L28.7987 49.6333ZM30.432 47.1667L29.3714 46.106H29.3714L30.432 47.1667ZM32.832 45.4L33.5525 46.7156L33.5644 46.7091L33.5762 46.7024L32.832 45.4ZM35.632 44.1667L36.0756 45.5996L36.086 45.5964L36.0964 45.593L35.632 44.1667ZM38.632 43.4L38.3499 41.9268L38.632 43.4ZM41.432 43L41.5533 44.4951L41.432 43ZM43.7987 42.9V44.4H45.2987V42.9H43.7987ZM42.6987 39.4333L41.7752 40.6154L41.784 40.6222L41.7929 40.629L42.6987 39.4333ZM34.932 39.1L35.2388 40.5683L35.2493 40.5661L35.2597 40.5638L34.932 39.1ZM31.432 40.2333L30.0748 40.872L30.7427 42.2912L32.1306 41.5607L31.432 40.2333ZM29.2987 35.7L28.4838 34.4406L27.3834 35.1527L27.9415 36.3387L29.2987 35.7ZM35.1987 33.1333L35.6334 34.569L35.6454 34.5653L35.1987 33.1333ZM48.0987 32.6667L47.6576 34.1003L47.6677 34.1034L47.6778 34.1064L48.0987 32.6667ZM51.5987 34.8667L50.4564 35.8388L50.4675 35.8519L50.4789 35.8647L51.5987 34.8667ZM53.532 38.8L52.0722 39.1447L52.0733 39.1493L53.532 38.8ZM54.0987 58.4H52.5987V58.6611L52.6869 58.9068L54.0987 58.4ZM55.032 61V62.5H57.1642L56.4438 60.4932L55.032 61ZM45.8987 61L44.4872 61.5075L44.844 62.5H45.8987V61ZM42.9987 55.6667L43.6194 57.0322L43.6447 57.0207L43.6695 57.0083L42.9987 55.6667ZM43.5987 55.3L44.559 56.4523L44.6112 56.4088L44.6594 56.3607L43.5987 55.3ZM43.7987 55.1L44.8594 56.1607L45.2987 55.7213V55.1H43.7987ZM43.7987 47.1H45.2987V45.6H43.7987V47.1ZM40.5654 48.2333L41.579 49.3391L41.5872 49.3315L41.5953 49.3239L40.5654 48.2333ZM43.7221 57.0243L43.3888 57.391L45.6086 59.409L45.9419 59.0423L43.7221 57.0243ZM43.3464 57.4397C43.2288 57.5808 42.9857 57.813 42.5563 58.1402L44.3744 60.5265C44.8783 60.1425 45.3242 59.7525 45.651 59.3603L43.3464 57.4397ZM42.5283 58.162C42.149 58.4655 41.6867 58.782 41.134 59.1096L42.6634 61.6904C43.3107 61.3069 43.8928 60.9123 44.4024 60.5046L42.5283 58.162ZM41.1126 59.1225C40.678 59.3899 40.099 59.6418 39.3483 59.8592L40.1825 62.7408C41.1206 62.4693 41.9638 62.1212 42.6848 61.6775L41.1126 59.1225ZM39.3137 59.8696C38.6159 60.09 37.9016 60.2 37.1654 60.2V63.2C38.2069 63.2 39.2259 63.0434 40.2171 62.7304L39.3137 59.8696ZM37.1654 60.2C34.3924 60.2 32.589 59.5149 31.4701 58.4084C30.3542 57.305 29.6654 55.5312 29.6654 52.8H26.6654C26.6654 56.0021 27.4765 58.6783 29.3606 60.5416C31.2417 62.4017 33.9383 63.2 37.1654 63.2V60.2ZM29.6654 52.8C29.6654 51.8309 29.8415 50.9848 30.1707 50.2396L27.4267 49.0271C26.9115 50.193 26.6654 51.4579 26.6654 52.8H29.6654ZM30.1758 50.228C30.5326 49.4017 30.9762 48.7438 31.4927 48.2273L29.3714 46.106C28.5545 46.9229 27.9093 47.9094 27.4216 49.0387L30.1758 50.228ZM31.4927 48.2273C32.0467 47.6734 32.7283 47.167 33.5525 46.7156L32.1116 44.0844C31.0691 44.6552 30.1507 45.3266 29.3714 46.106L31.4927 48.2273ZM33.5762 46.7024C34.4238 46.218 35.2568 45.853 36.0756 45.5996L35.1885 42.7337C34.1406 43.0581 33.1069 43.5153 32.0878 44.0976L33.5762 46.7024ZM36.0964 45.593C36.9889 45.3024 37.9278 45.0621 38.9141 44.8732L38.3499 41.9268C37.2473 42.1379 36.1863 42.4087 35.1677 42.7404L36.0964 45.593ZM38.9141 44.8732C39.9197 44.6807 40.7978 44.5563 41.5533 44.4951L41.3108 41.5049C40.4218 41.577 39.4332 41.7193 38.3499 41.9268L38.9141 44.8732ZM41.5533 44.4951C42.3388 44.4314 43.0871 44.4 43.7987 44.4V41.4C42.9992 41.4 42.1697 41.4353 41.3108 41.5049L41.5533 44.4951ZM45.2987 42.9V42.3H42.2987V42.9H45.2987ZM45.2987 42.3C45.2987 40.7065 44.8646 39.1923 43.6045 38.2377L41.7929 40.629C41.9995 40.7854 42.2987 41.1823 42.2987 42.3H45.2987ZM43.6222 38.2513C42.5102 37.3826 40.9365 37.1 39.232 37.1V40.1C40.7276 40.1 41.465 40.373 41.7752 40.6154L43.6222 38.2513ZM39.232 37.1C37.733 37.1 36.1894 37.2814 34.6043 37.6362L35.2597 40.5638C36.6524 40.252 37.9755 40.1 39.232 40.1V37.1ZM34.6252 37.6317C33.0705 37.9566 31.752 38.3698 30.7334 38.906L32.1306 41.5607C32.8009 41.2079 33.8158 40.8656 35.2388 40.5683L34.6252 37.6317ZM32.7893 39.5946L30.6559 35.0613L27.9415 36.3387L30.0748 40.872L32.7893 39.5946ZM30.1136 36.9594C31.4699 36.0818 33.2956 35.2767 35.6333 34.569L34.7641 31.6977C32.2574 32.4566 30.1498 33.3627 28.4838 34.4406L30.1136 36.9594ZM35.6454 34.5653C37.9245 33.8544 40.2407 33.5 42.5987 33.5V30.5C39.9345 30.5 37.3173 30.9012 34.752 31.7014L35.6454 34.5653ZM42.5987 33.5C44.7348 33.5 46.4061 33.7153 47.6576 34.1003L48.5398 31.233C46.9024 30.7292 44.907 30.5 42.5987 30.5V33.5ZM47.6778 34.1064C48.8698 34.4548 49.7755 35.0389 50.4564 35.8388L52.741 33.8945C51.6441 32.6056 50.2165 31.7229 48.5195 31.2269L47.6778 34.1064ZM50.4789 35.8647C51.1939 36.6669 51.7402 37.7389 52.0722 39.1447L54.9919 38.4553C54.5683 36.6611 53.8257 35.1109 52.7185 33.8686L50.4789 35.8647ZM52.0733 39.1493C52.4136 40.5707 52.5987 42.4536 52.5987 44.8333H55.5987C55.5987 42.3241 55.406 40.1849 54.9908 38.4507L52.0733 39.1493ZM52.5987 44.8333V58.4H55.5987V44.8333H52.5987ZM52.6869 58.9068L53.6202 61.5068L56.4438 60.4932L55.5105 57.8932L52.6869 58.9068ZM55.032 59.5H45.8987V62.5H55.032V59.5ZM47.3102 60.4925L46.2436 57.5258L43.4205 58.5409L44.4872 61.5075L47.3102 60.4925ZM42.1987 57.3333C42.6852 57.3333 43.1655 57.2385 43.6194 57.0322L42.378 54.3011C42.343 54.317 42.29 54.3333 42.1987 54.3333V57.3333ZM43.6695 57.0083C43.9772 56.8545 44.2956 56.6718 44.559 56.4523L42.6384 54.1477C42.6435 54.1434 42.6242 54.1598 42.5665 54.1951C42.5109 54.2291 42.4329 54.2725 42.3279 54.325L43.6695 57.0083ZM44.6594 56.3607C44.6838 56.3362 44.6839 56.3361 44.7062 56.3138C44.7938 56.2262 44.6614 56.3586 44.7469 56.2732C44.7818 56.2382 44.7304 56.2896 44.7648 56.2552C44.765 56.255 44.7652 56.2548 44.7654 56.2547C44.7655 56.2545 44.7657 56.2543 44.7659 56.2541C44.7695 56.2506 44.7634 56.2566 44.767 56.2531C44.7684 56.2516 44.7677 56.2523 44.7691 56.2509C44.7719 56.2481 44.7705 56.2496 44.7732 56.2468C44.7786 56.2415 44.776 56.244 44.7812 56.2388C44.8333 56.1867 44.7445 56.2755 44.7961 56.2239C44.8139 56.2061 44.7852 56.2348 44.8029 56.2171C44.8051 56.2149 44.804 56.216 44.8062 56.2138C44.8187 56.2013 44.7969 56.2232 44.8094 56.2107C44.8194 56.2007 44.8116 56.2084 44.8211 56.1989C44.8429 56.1771 44.8099 56.2101 44.8312 56.1888C44.8578 56.1622 44.8138 56.2062 44.8398 56.1802C44.8417 56.1783 44.8398 56.1802 44.8417 56.1783C44.8454 56.1746 44.8399 56.1802 44.8435 56.1765C44.8502 56.1698 44.8386 56.1814 44.8452 56.1748C44.8453 56.1747 44.8454 56.1746 44.8455 56.1746C44.8455 56.1745 44.8456 56.1744 44.8457 56.1744C44.8465 56.1735 44.8452 56.1748 44.8461 56.174C44.8471 56.1729 44.8458 56.1742 44.8469 56.1732C44.8719 56.1482 44.8279 56.1922 44.8523 56.1677C44.8616 56.1584 44.8454 56.1747 44.8545 56.1655C44.8558 56.1642 44.8541 56.1659 44.8554 56.1646C44.8575 56.1625 44.8541 56.1659 44.8562 56.1638C44.8594 56.1607 44.8546 56.1654 44.8576 56.1624C44.8603 56.1597 44.856 56.164 44.8586 56.1614C44.8587 56.1613 44.8586 56.1614 44.8588 56.1613C44.8588 56.1612 44.8588 56.1612 44.8588 56.1612C44.8588 56.1612 44.8588 56.1612 44.8588 56.1612C44.8589 56.1612 44.8589 56.1612 44.8589 56.1611C44.8589 56.1611 44.8589 56.1611 44.8589 56.1611C44.8595 56.1605 44.8586 56.1614 44.8592 56.1609C44.8592 56.1608 44.8592 56.1608 44.8592 56.1608C44.8593 56.1608 44.8593 56.1607 44.8593 56.1607C44.8594 56.1606 44.8593 56.1608 44.8593 56.1607C44.8593 56.1607 44.8593 56.1607 44.8593 56.1607C44.8593 56.1607 44.8593 56.1607 44.8594 56.1607C44.8594 56.1607 44.8594 56.1607 44.8594 56.1607C44.8594 56.1607 44.8594 56.1607 43.7987 55.1C42.738 54.0393 42.738 54.0393 42.738 54.0393L42.738 54.0393C42.738 54.0393 42.738 54.0393 42.738 54.0394L42.738 54.0394C42.738 54.0394 42.738 54.0394 42.738 54.0394C42.738 54.0394 42.738 54.0394 42.738 54.0394C42.7379 54.0395 42.738 54.0394 42.7379 54.0394C42.7379 54.0395 42.7379 54.0395 42.7378 54.0395C42.7377 54.0396 42.7379 54.0395 42.7378 54.0396C42.7378 54.0396 42.7378 54.0396 42.7378 54.0396C42.7378 54.0396 42.7377 54.0396 42.7377 54.0396C42.7377 54.0397 42.7377 54.0397 42.7377 54.0397C42.7377 54.0397 42.7376 54.0397 42.7376 54.0397C42.7376 54.0398 42.7376 54.0398 42.7376 54.0398C42.7373 54.0401 42.7378 54.0396 42.7374 54.0399C42.7374 54.04 42.7374 54.04 42.7374 54.04C42.7372 54.0402 42.7374 54.04 42.7373 54.0401C42.7367 54.0406 42.7369 54.0404 42.7363 54.0411C42.7359 54.0415 42.7364 54.041 42.736 54.0414C42.7359 54.0415 42.7359 54.0415 42.7358 54.0416C42.7358 54.0416 42.7358 54.0416 42.7357 54.0416C42.7357 54.0417 42.7357 54.0417 42.7356 54.0417C42.7352 54.0422 42.7358 54.0416 42.7353 54.0421C42.7348 54.0426 42.7354 54.0419 42.7349 54.0425C42.7328 54.0445 42.7336 54.0438 42.731 54.0464C42.7293 54.048 42.7315 54.0459 42.7298 54.0476C42.7297 54.0476 42.7297 54.0477 42.7296 54.0477C42.7296 54.0478 42.7295 54.0479 42.7295 54.0479C42.7294 54.048 42.7294 54.048 42.7293 54.0481C42.7293 54.0481 42.7292 54.0482 42.7291 54.0482C42.7282 54.0491 42.7294 54.048 42.7285 54.0489C42.7266 54.0507 42.7289 54.0485 42.7271 54.0503C42.7229 54.0545 42.7297 54.0477 42.7255 54.0518C42.7172 54.0602 42.7203 54.0571 42.7099 54.0675C42.6953 54.0821 42.7047 54.0727 42.688 54.0893C42.687 54.0903 42.6827 54.0946 42.6816 54.0958C42.6815 54.0959 42.6813 54.0961 42.6812 54.0962C42.681 54.0963 42.6809 54.0965 42.6808 54.0966C42.6806 54.0968 42.6805 54.0969 42.6803 54.097C42.6802 54.0972 42.6801 54.0973 42.6799 54.0975C42.6777 54.0997 42.6805 54.0969 42.6782 54.0992C42.6779 54.0994 42.6768 54.1006 42.6765 54.1009C42.6742 54.1032 42.6771 54.1003 42.6748 54.1026C42.6724 54.105 42.6736 54.1038 42.6712 54.1062C42.671 54.1063 42.6709 54.1065 42.6707 54.1066C42.6706 54.1068 42.6704 54.1069 42.6703 54.1071C42.6701 54.1072 42.67 54.1074 42.6698 54.1075C42.6697 54.1077 42.6695 54.1078 42.6694 54.108C42.6688 54.1086 42.6691 54.1083 42.6685 54.1089C42.6681 54.1092 42.6678 54.1095 42.6675 54.1098C42.6669 54.1105 42.6663 54.1111 42.6657 54.1117C42.6655 54.1119 42.6654 54.112 42.6652 54.1122C42.665 54.1123 42.6649 54.1125 42.6647 54.1127C42.6641 54.1133 42.6644 54.113 42.6638 54.1136C42.6586 54.1188 42.6651 54.1123 42.6599 54.1175C42.6391 54.1383 42.6485 54.1289 42.6255 54.1518C42.5984 54.1789 42.6141 54.1633 42.5849 54.1925C42.5703 54.207 42.5774 54.2 42.5623 54.2151C42.4961 54.2813 42.6047 54.1727 42.538 54.2393L44.6594 56.3607ZM45.2987 55.1V47.1H42.2987V55.1H45.2987ZM43.7987 45.6C42.1536 45.6 40.6751 46.0665 39.5354 47.1428L41.5953 49.3239C42.0556 48.8891 42.7327 48.6 43.7987 48.6V45.6ZM39.5518 47.1276C38.3272 48.2501 37.8654 49.8765 37.8654 51.6667H40.8654C40.8654 50.3457 41.2035 49.6832 41.579 49.3391L39.5518 47.1276ZM37.8654 51.6667C37.8654 53.1787 38.1139 54.5772 38.8333 55.6351C39.6231 56.7966 40.8299 57.3333 42.1987 57.3333V54.3333C41.6786 54.3333 41.4687 54.1756 41.3141 53.9482C41.0891 53.6173 40.8654 52.9324 40.8654 51.6667H37.8654ZM64.8284 61L63.4108 61.4903L63.76 62.5H64.8284V61ZM55.0284 32.6667V31.1667H52.9224L53.6108 33.157L55.0284 32.6667ZM66.995 32.6667L68.4635 32.3605L68.2146 31.1667H66.995V32.6667ZM69.1284 42.9L70.6063 42.6435L70.602 42.6186L70.5968 42.5939L69.1284 42.9ZM70.6617 51.7333L69.1838 51.9899L72.1347 52.0168L70.6617 51.7333ZM72.3617 42.9L70.9035 42.5485L70.8953 42.5823L70.8887 42.6165L72.3617 42.9ZM74.8284 32.6667V31.1667H73.647L73.3701 32.3152L74.8284 32.6667ZM83.8284 32.6667L85.2651 33.0977L85.8444 31.1667H83.8284V32.6667ZM75.3284 61V62.5H76.4444L76.7651 61.431L75.3284 61ZM66.246 60.5097L56.446 32.1763L53.6108 33.157L63.4108 61.4903L66.246 60.5097ZM55.0284 34.1667H66.995V31.1667H55.0284V34.1667ZM65.5266 32.9728L67.66 43.2061L70.5968 42.5939L68.4635 32.3605L65.5266 32.9728ZM67.6505 43.1565L69.1838 51.9899L72.1396 51.4768L70.6063 42.6435L67.6505 43.1565ZM72.1347 52.0168L73.8347 43.1835L70.8887 42.6165L69.1888 51.4499L72.1347 52.0168ZM73.82 43.2515L76.2866 33.0182L73.3701 32.3152L70.9035 42.5485L73.82 43.2515ZM74.8284 34.1667H83.8284V31.1667H74.8284V34.1667ZM82.3916 32.2356L73.8916 60.569L76.7651 61.431L85.2651 33.0977L82.3916 32.2356ZM75.3284 59.5H64.8284V62.5H75.3284V59.5ZM92.1721 61L90.7545 61.4903L91.1038 62.5H92.1721V61ZM82.3721 32.6667V31.1667H80.2661L80.9545 33.157L82.3721 32.6667ZM94.3388 32.6667L95.8072 32.3605L95.5583 31.1667H94.3388V32.6667ZM96.4721 42.9L97.95 42.6435L97.9457 42.6186L97.9406 42.5939L96.4721 42.9ZM98.0055 51.7333L96.5276 51.9899L99.4784 52.0168L98.0055 51.7333ZM99.7055 42.9L98.2472 42.5485L98.2391 42.5823L98.2325 42.6165L99.7055 42.9ZM102.172 32.6667V31.1667H100.991L100.714 32.3152L102.172 32.6667ZM111.172 32.6667L112.609 33.0977L113.188 31.1667H111.172V32.6667ZM102.672 61V62.5H103.788L104.109 61.431L102.672 61ZM93.5897 60.5097L83.7897 32.1763L80.9545 33.157L90.7545 61.4903L93.5897 60.5097ZM82.3721 34.1667H94.3388V31.1667H82.3721V34.1667ZM92.8704 32.9728L95.0037 43.2061L97.9406 42.5939L95.8072 32.3605L92.8704 32.9728ZM94.9942 43.1565L96.5276 51.9899L99.4834 51.4768L97.95 42.6435L94.9942 43.1565ZM99.4784 52.0168L101.178 43.1835L98.2325 42.6165L96.5325 51.4499L99.4784 52.0168ZM101.164 43.2515L103.63 33.0182L100.714 32.3152L98.2472 42.5485L101.164 43.2515ZM102.172 34.1667H111.172V31.1667H102.172V34.1667ZM109.735 32.2356L101.235 60.569L104.109 61.431L112.609 33.0977L109.735 32.2356ZM102.672 59.5H92.1721V62.5H102.672V59.5ZM113.049 61H111.549V62.5H113.049V61ZM113.049 39.4333H114.549V38.5961L113.837 38.1566L113.049 39.4333ZM111.049 38.2H109.549V39.0373L110.262 39.4768L111.049 38.2ZM111.049 34.6333L110.652 33.1868L109.549 33.4895V34.6333H111.049ZM118.216 32.6667V31.1667H118.014L117.819 31.2201L118.216 32.6667ZM123.783 32.6667H125.283V31.1667H123.783V32.6667ZM123.783 61V62.5H125.283V61H123.783ZM117.883 29.6L116.819 30.6574L117.259 31.1H117.883V29.6ZM112.416 24.1H110.916V24.7187L111.352 25.1574L112.416 24.1ZM112.416 22.9333L111.355 21.8727L110.916 22.312V22.9333H112.416ZM117.883 17.4667V15.9667H117.261L116.822 16.406L117.883 17.4667ZM119.149 17.4667L120.187 16.3841L119.752 15.9667H119.149V17.4667ZM124.849 22.9333H126.349V22.2936L125.887 21.8507L124.849 22.9333ZM124.849 24.1L125.891 25.1794L126.349 24.7371V24.1H124.849ZM119.149 29.6V31.1H119.755L120.191 30.6794L119.149 29.6ZM114.549 61V39.4333H111.549V61H114.549ZM113.837 38.1566L111.837 36.9232L110.262 39.4768L112.262 40.7101L113.837 38.1566ZM112.549 38.2V34.6333H109.549V38.2H112.549ZM111.446 36.0799L118.613 34.1132L117.819 31.2201L110.652 33.1868L111.446 36.0799ZM118.216 34.1667H123.783V31.1667H118.216V34.1667ZM122.283 32.6667V61H125.283V32.6667H122.283ZM123.783 59.5H113.049V62.5H123.783V59.5ZM118.946 28.5426L113.48 23.0426L111.352 25.1574L116.819 30.6574L118.946 28.5426ZM113.916 24.1V22.9333H110.916V24.1H113.916ZM113.477 23.994L118.943 18.5273L116.822 16.406L111.355 21.8727L113.477 23.994ZM117.883 18.9667H119.149V15.9667H117.883V18.9667ZM118.111 18.5493L123.811 24.0159L125.887 21.8507L120.187 16.3841L118.111 18.5493ZM123.349 22.9333V24.1H126.349V22.9333H123.349ZM123.808 23.0206L118.108 28.5206L120.191 30.6794L125.891 25.1794L123.808 23.0206ZM119.149 28.1H117.883V31.1H119.149V28.1Z" fill="#61DAFB" mask="url(#path-1-outside-1_3_5)"/>
<path d="M98.9066 71.1688V55.5422H103.32V67.5955H107.293V71.1688H98.9066ZM114.423 69.9822L114.289 70.1288C114.2 70.2355 114.063 70.3599 113.876 70.5022C113.698 70.6444 113.489 70.7866 113.249 70.9288C113.018 71.0711 112.734 71.1911 112.396 71.2888C112.058 71.3955 111.712 71.4488 111.356 71.4488C108.956 71.4488 107.756 70.2622 107.756 67.8888C107.756 67.4266 107.84 67.0044 108.009 66.6222C108.178 66.2311 108.396 65.9022 108.663 65.6355C108.929 65.3688 109.249 65.1333 109.623 64.9288C109.996 64.7155 110.369 64.5511 110.743 64.4355C111.125 64.3111 111.525 64.2088 111.943 64.1288C112.36 64.0488 112.734 63.9955 113.063 63.9688C113.392 63.9422 113.707 63.9288 114.009 63.9288V63.6888C114.009 63.1466 113.863 62.7644 113.569 62.5422C113.285 62.3199 112.823 62.2088 112.183 62.2088C111.632 62.2088 111.058 62.2755 110.463 62.4088C109.867 62.5333 109.4 62.6844 109.063 62.8622L108.209 61.0488C108.814 60.6577 109.6 60.3155 110.569 60.0222C111.538 59.7199 112.525 59.5688 113.529 59.5688C114.418 59.5688 115.152 59.6577 115.729 59.8355C116.307 60.0044 116.774 60.2977 117.129 60.7155C117.494 61.1244 117.752 61.6488 117.903 62.2888C118.054 62.9199 118.129 63.7244 118.129 64.7022V70.1288L118.503 71.1688H114.849L114.423 69.9822ZM113.369 69.1022C113.485 69.1022 113.592 69.0799 113.689 69.0355C113.796 68.9822 113.876 68.9333 113.929 68.8888C113.983 68.8355 114.009 68.8088 114.009 68.8088V65.6088C113.467 65.6088 113.036 65.7599 112.716 66.0622C112.396 66.3555 112.236 66.8133 112.236 67.4355C112.236 68.5466 112.614 69.1022 113.369 69.1022ZM126.661 71.1688C125.666 71.1688 124.777 70.9599 123.994 70.5422V71.1688H119.648V56.0888L118.848 55.6088V54.3688L123.128 53.7022H123.994V60.8755C124.137 60.7155 124.292 60.5644 124.461 60.4222C124.63 60.28 124.834 60.1422 125.074 60.0088C125.314 59.8755 125.586 59.7688 125.888 59.6888C126.199 59.6088 126.528 59.5688 126.874 59.5688C128.341 59.5688 129.417 60.0711 130.101 61.0755C130.794 62.0799 131.141 63.4711 131.141 65.2488C131.141 66.0844 131.048 66.8577 130.861 67.5688C130.674 68.2711 130.399 68.8933 130.034 69.4355C129.67 69.9777 129.199 70.4044 128.621 70.7155C128.052 71.0177 127.399 71.1688 126.661 71.1688ZM124.701 69.3155C125.892 69.3155 126.488 68.4044 126.488 66.5822V64.3155C126.488 63.5511 126.346 62.9644 126.061 62.5555C125.786 62.1377 125.43 61.9288 124.994 61.9288C124.666 61.9288 124.332 62.0488 123.994 62.2888V69.2222C124.128 69.2577 124.252 69.2844 124.368 69.3022C124.483 69.3111 124.594 69.3155 124.701 69.3155ZM136.036 71.4488C135.201 71.4488 134.356 71.3111 133.503 71.0355C132.65 70.7511 132.103 70.4755 131.863 70.2088L132.21 68.0622C132.512 68.3555 133.014 68.6088 133.716 68.8222C134.428 69.0355 135.152 69.1422 135.89 69.1422C136.423 69.1422 136.788 69.0755 136.983 68.9422C137.188 68.8088 137.29 68.6222 137.29 68.3822C137.29 68.1511 137.112 67.9466 136.756 67.7688C136.401 67.5822 135.823 67.3688 135.023 67.1288C132.952 66.5066 131.916 65.2177 131.916 63.2622C131.916 62.4622 132.148 61.7777 132.61 61.2088C133.072 60.6311 133.663 60.2133 134.383 59.9555C135.103 59.6977 135.908 59.5688 136.796 59.5688C138.316 59.5688 139.436 59.8488 140.156 60.4088C140.316 60.56 140.396 60.6355 140.396 60.6355L139.81 62.5422C139.223 61.9644 138.414 61.6755 137.383 61.6755C136.539 61.6755 136.116 61.9244 136.116 62.4222C136.116 62.5644 136.148 62.6844 136.21 62.7822C136.272 62.8711 136.374 62.9511 136.516 63.0222C136.668 63.0844 136.814 63.1377 136.956 63.1822C137.099 63.2177 137.299 63.2711 137.556 63.3422C137.814 63.4044 138.036 63.4622 138.223 63.5155C139.263 63.8622 140.019 64.3511 140.49 64.9822C140.961 65.6133 141.196 66.3999 141.196 67.3422C141.196 70.0799 139.476 71.4488 136.036 71.4488Z" fill="white"/>
</svg>
