<svg id="visual" viewBox="0 0 960 540" width="960" height="540" xmlns="http://www.w3.org/2000/svg" xmlns:xlink="http://www.w3.org/1999/xlink" version="1.1"><rect x="0" y="0" width="960" height="540" fill="#212121"></rect><path d="M0 481L7.7 480.5C15.3 480 30.7 479 45.8 484.5C61 490 76 502 91.2 500.8C106.3 499.7 121.7 485.3 137 480.5C152.3 475.7 167.7 480.3 183 481.8C198.3 483.3 213.7 481.7 228.8 474.7C244 467.7 259 455.3 274.2 457.3C289.3 459.3 304.7 475.7 320 484.3C335.3 493 350.7 494 365.8 496C381 498 396 501 411.2 499.8C426.3 498.7 441.7 493.3 457 486.7C472.3 480 487.7 472 503 470.5C518.3 469 533.7 474 548.8 479.2C564 484.3 579 489.7 594.2 490.7C609.3 491.7 624.7 488.3 640 493.3C655.3 498.3 670.7 511.7 685.8 506.2C701 500.7 716 476.3 731.2 466.7C746.3 457 761.7 462 777 470C792.3 478 807.7 489 823 488.8C838.3 488.7 853.7 477.3 868.8 471C884 464.7 899 463.3 914.2 469.7C929.3 476 944.7 490 952.3 497L960 504L960 541L952.3 541C944.7 541 929.3 541 914.2 541C899 541 884 541 868.8 541C853.7 541 838.3 541 823 541C807.7 541 792.3 541 777 541C761.7 541 746.3 541 731.2 541C716 541 701 541 685.8 541C670.7 541 655.3 541 640 541C624.7 541 609.3 541 594.2 541C579 541 564 541 548.8 541C533.7 541 518.3 541 503 541C487.7 541 472.3 541 457 541C441.7 541 426.3 541 411.2 541C396 541 381 541 365.8 541C350.7 541 335.3 541 320 541C304.7 541 289.3 541 274.2 541C259 541 244 541 228.8 541C213.7 541 198.3 541 183 541C167.7 541 152.3 541 137 541C121.7 541 106.3 541 91.2 541C76 541 61 541 45.8 541C30.7 541 15.3 541 7.7 541L0 541Z" fill="#715df2" stroke-linecap="round" stroke-linejoin="miter"></path></svg>