<svg id="visual" viewBox="0 0 960 540" width="960" height="540" xmlns="http://www.w3.org/2000/svg" xmlns:xlink="http://www.w3.org/1999/xlink" version="1.1"><rect x="0" y="0" width="960" height="540" fill="#212121"></rect><path d="M0 384L12.3 376.7C24.7 369.3 49.3 354.7 74 366.5C98.7 378.3 123.3 416.7 148 422.7C172.7 428.7 197.3 402.3 221.8 391.3C246.3 380.3 270.7 384.7 295.2 388.5C319.7 392.3 344.3 395.7 369 407C393.7 418.3 418.3 437.7 443 443C467.7 448.3 492.3 439.7 517 439.7C541.7 439.7 566.3 448.3 591 435.3C615.7 422.3 640.3 387.7 664.8 389.8C689.3 392 713.7 431 738.2 438.2C762.7 445.3 787.3 420.7 812 419.5C836.7 418.3 861.3 440.7 886 433C910.7 425.3 935.3 387.7 947.7 368.8L960 350L960 541L947.7 541C935.3 541 910.7 541 886 541C861.3 541 836.7 541 812 541C787.3 541 762.7 541 738.2 541C713.7 541 689.3 541 664.8 541C640.3 541 615.7 541 591 541C566.3 541 541.7 541 517 541C492.3 541 467.7 541 443 541C418.3 541 393.7 541 369 541C344.3 541 319.7 541 295.2 541C270.7 541 246.3 541 221.8 541C197.3 541 172.7 541 148 541C123.3 541 98.7 541 74 541C49.3 541 24.7 541 12.3 541L0 541Z" fill="#715df2" stroke-linecap="round" stroke-linejoin="miter"></path></svg>