<svg id="visual" viewBox="0 0 960 540" width="960" height="540" xmlns="http://www.w3.org/2000/svg" xmlns:xlink="http://www.w3.org/1999/xlink" version="1.1"><rect x="0" y="0" width="960" height="540" fill="#212121"></rect><defs><linearGradient id="grad1_0" x1="43.8%" y1="0%" x2="100%" y2="100%"><stop offset="14.444444444444446%" stop-color="#212121" stop-opacity="1"></stop><stop offset="85.55555555555554%" stop-color="#212121" stop-opacity="1"></stop></linearGradient></defs><defs><linearGradient id="grad2_0" x1="0%" y1="0%" x2="56.3%" y2="100%"><stop offset="14.444444444444446%" stop-color="#212121" stop-opacity="1"></stop><stop offset="85.55555555555554%" stop-color="#212121" stop-opacity="1"></stop></linearGradient></defs><g transform="translate(960, 0)"><path d="M0 405C-30.5 414.6 -61 424.1 -79 397.2C-97.1 370.3 -102.6 307 -116.7 281.8C-130.8 256.6 -153.3 269.6 -186.7 279.4C-220 289.2 -264.1 295.7 -277.2 277.2C-290.3 258.7 -272.4 215 -286 191.1C-299.7 167.2 -344.9 163 -344.6 142.7C-344.3 122.5 -298.6 86.3 -301.1 59.9C-303.6 33.4 -354.3 16.7 -405 0L0 0Z" fill="#715df2"></path></g><g transform="translate(0, 540)"><path d="M0 -405C23.3 -384.6 46.6 -364.2 70 -352.1C93.5 -340 117.2 -336.1 131.3 -316.9C145.3 -297.7 149.7 -263.2 166.7 -249.4C183.7 -235.6 213.3 -242.5 241.8 -241.8C270.4 -241.2 297.9 -233 327.6 -218.9C357.3 -204.8 389 -184.6 374.2 -155C359.3 -125.3 297.8 -86.1 295.2 -58.7C292.6 -31.3 348.8 -15.7 405 0L0 0Z" fill="#715df2"></path></g></svg>