<svg id="visual" viewBox="0 0 960 540" width="960" height="540" xmlns="http://www.w3.org/2000/svg" xmlns:xlink="http://www.w3.org/1999/xlink" version="1.1"><rect x="0" y="0" width="960" height="540" fill="#000"></rect><path d="M0 463L5.7 467.5C11.3 472 22.7 481 34.2 488.5C45.7 496 57.3 502 68.8 501C80.3 500 91.7 492 103 490.7C114.3 489.3 125.7 494.7 137 493.8C148.3 493 159.7 486 171.2 480C182.7 474 194.3 469 205.8 465.8C217.3 462.7 228.7 461.3 240 463.8C251.3 466.3 262.7 472.7 274.2 478.8C285.7 485 297.3 491 308.8 494.5C320.3 498 331.7 499 343 500.8C354.3 502.7 365.7 505.3 377 503C388.3 500.7 399.7 493.3 411.2 488.5C422.7 483.7 434.3 481.3 445.8 480C457.3 478.7 468.7 478.3 480 477.5C491.3 476.7 502.7 475.3 514.2 476C525.7 476.7 537.3 479.3 548.8 483.5C560.3 487.7 571.7 493.3 583 495.3C594.3 497.3 605.7 495.7 617 492.7C628.3 489.7 639.7 485.3 651.2 482.3C662.7 479.3 674.3 477.7 685.8 474.8C697.3 472 708.7 468 720 469.2C731.3 470.3 742.7 476.7 754.2 481.8C765.7 487 777.3 491 788.8 495.5C800.3 500 811.7 505 823 505.2C834.3 505.3 845.7 500.7 857 495C868.3 489.3 879.7 482.7 891.2 483.7C902.7 484.7 914.3 493.3 925.8 499C937.3 504.7 948.7 507.3 954.3 508.7L960 510L960 541L954.3 541C948.7 541 937.3 541 925.8 541C914.3 541 902.7 541 891.2 541C879.7 541 868.3 541 857 541C845.7 541 834.3 541 823 541C811.7 541 800.3 541 788.8 541C777.3 541 765.7 541 754.2 541C742.7 541 731.3 541 720 541C708.7 541 697.3 541 685.8 541C674.3 541 662.7 541 651.2 541C639.7 541 628.3 541 617 541C605.7 541 594.3 541 583 541C571.7 541 560.3 541 548.8 541C537.3 541 525.7 541 514.2 541C502.7 541 491.3 541 480 541C468.7 541 457.3 541 445.8 541C434.3 541 422.7 541 411.2 541C399.7 541 388.3 541 377 541C365.7 541 354.3 541 343 541C331.7 541 320.3 541 308.8 541C297.3 541 285.7 541 274.2 541C262.7 541 251.3 541 240 541C228.7 541 217.3 541 205.8 541C194.3 541 182.7 541 171.2 541C159.7 541 148.3 541 137 541C125.7 541 114.3 541 103 541C91.7 541 80.3 541 68.8 541C57.3 541 45.7 541 34.2 541C22.7 541 11.3 541 5.7 541L0 541Z" fill="#af33f2" stroke-linecap="round" stroke-linejoin="miter"></path></svg>